<?xml version="1.0" standalone="no"?>
<!DOCTYPE svg PUBLIC "-//W3C//DTD SVG 20010904//EN"
 "http://www.w3.org/TR/2001/REC-SVG-20010904/DTD/svg10.dtd">
<svg version="1.0" xmlns="http://www.w3.org/2000/svg"
 width="65.000000pt" height="72.000000pt" viewBox="0 0 65.000000 72.000000"
 preserveAspectRatio="xMidYMid meet">

<g transform="translate(0.000000,72.000000) scale(0.100000,-0.100000)"
fill="#000000" stroke="none">
<path d="M344 578 c-155 -153 -171 -191 -106 -260 45 -49 60 -27 17 24 -45 53
-37 69 97 205 109 110 126 123 156 123 27 0 43 -9 73 -39 58 -58 55 -87 -22
-166 -36 -38 -58 -68 -54 -75 11 -17 122 96 136 137 25 77 -54 173 -142 173
-28 0 -49 -17 -155 -122z"/>
<path d="M447 571 c-20 -34 -18 -56 6 -91 18 -26 27 -23 50 23 14 26 13 32 -5
63 -11 19 -23 34 -27 34 -4 0 -14 -13 -24 -29z"/>
<path d="M367 433 c-4 -4 5 -19 20 -35 19 -20 27 -39 27 -63 0 -32 -12 -48
-119 -155 -109 -110 -123 -120 -156 -120 -30 0 -43 7 -73 40 -54 60 -50 87 25
165 80 84 70 110 -12 29 -97 -96 -103 -150 -24 -223 38 -35 51 -41 87 -41 41
0 47 4 170 128 127 127 128 128 128 174 0 35 -6 54 -26 77 -26 32 -35 36 -47
24z"/>
<path d="M163 263 c-28 -11 -33 -18 -33 -48 0 -44 18 -46 22 -2 2 24 8 33 26
35 20 3 22 -1 22 -37 0 -36 -3 -41 -22 -42 l-23 0 23 -9 c39 -16 52 -3 52 55
0 61 -14 70 -67 48z"/>
</g>
</svg>
