<?xml version="1.0" standalone="no"?>
<!DOCTYPE svg PUBLIC "-//W3C//DTD SVG 20010904//EN"
 "http://www.w3.org/TR/2001/REC-SVG-20010904/DTD/svg10.dtd">
<svg version="1.0" xmlns="http://www.w3.org/2000/svg"
 width="506.000000pt" height="457.000000pt" viewBox="0 0 506.000000 457.000000"
 preserveAspectRatio="xMidYMid meet">

<g transform="translate(0.000000,457.000000) scale(0.100000,-0.100000)"
fill="#000000" stroke="none">
<path d="M3335 4410 c-73 -22 -134 -38 -200 -52 -27 -6 -68 -16 -90 -24 -22
-7 -60 -16 -85 -20 -25 -4 -56 -12 -70 -19 -14 -7 -45 -15 -70 -19 -25 -4 -65
-13 -90 -21 -59 -18 -158 -44 -347 -89 -32 -7 -80 -21 -106 -30 -26 -9 -58
-16 -70 -16 -12 0 -42 -7 -67 -15 -56 -19 -149 -43 -215 -56 -27 -5 -67 -16
-88 -24 -20 -8 -47 -15 -60 -15 -12 0 -51 -8 -87 -19 -71 -21 -131 -37 -200
-53 -25 -5 -74 -18 -110 -28 -101 -28 -150 -40 -215 -55 -69 -16 -123 -30
-215 -55 -36 -10 -85 -23 -110 -28 -69 -16 -129 -32 -200 -53 -36 -11 -74 -19
-85 -19 -12 0 -46 -9 -78 -20 -31 -11 -66 -20 -77 -20 -11 0 -51 -15 -88 -34
-37 -18 -81 -37 -98 -40 -29 -6 -78 -47 -126 -105 -17 -20 -18 -109 -18 -1556
0 -997 3 -1535 10 -1535 5 0 12 -12 16 -27 11 -50 111 -177 154 -197 8 -4 26
-13 40 -21 22 -13 313 -15 2133 -15 l2108 0 45 26 c52 31 131 108 140 138 3
12 12 28 19 36 7 8 23 42 34 75 20 56 21 80 21 447 0 213 3 388 8 389 4 0 30
2 59 2 38 2 58 8 75 25 14 12 30 22 36 22 9 0 12 139 12 578 l-1 577 -22 16
c-32 23 -95 42 -120 35 -47 -12 -47 -12 -47 466 l0 449 -25 48 c-28 57 -91
112 -155 137 -40 16 -92 19 -445 24 l-400 5 -5 310 -5 310 -29 45 c-42 66 -66
89 -118 116 -60 31 -182 33 -273 4z m189 -225 c14 -21 16 -62 16 -289 l0 -266
-22 -5 c-13 -3 -534 -4 -1158 -3 -1083 3 -1235 7 -1085 30 28 4 73 14 100 22
28 8 70 19 95 25 64 14 126 30 200 52 36 11 74 19 85 19 12 0 46 9 78 20 31
11 68 20 82 20 14 0 38 6 53 14 15 7 50 17 77 21 28 4 58 11 67 16 10 5 48 16
85 23 37 8 88 20 113 27 25 6 74 19 110 29 36 10 85 23 110 29 25 7 76 19 113
27 37 7 75 18 85 23 9 5 40 12 67 16 28 4 61 13 75 20 14 7 45 15 70 19 25 4
63 13 85 20 22 8 63 18 90 24 62 13 121 28 205 53 36 11 76 19 90 19 14 0 32
5 40 10 26 17 57 11 74 -15z m1024 -807 c14 -14 17 -844 3 -867 -7 -10 -71
-13 -340 -12 -225 1 -331 -1 -331 -9 0 -5 -13 -10 -28 -10 l-29 0 -6 -442 c-4
-244 -7 -518 -7 -610 l0 -168 35 0 c19 0 35 -5 35 -10 0 -8 106 -10 331 -9
199 0 335 -3 341 -9 5 -5 8 -162 6 -405 -3 -384 -4 -396 -24 -424 -11 -15 -32
-34 -45 -40 -19 -10 -466 -13 -2068 -13 -2030 0 -2044 0 -2076 20 -24 15 -36
32 -44 64 -17 68 -16 2937 1 2948 7 4 963 8 2123 8 1629 0 2114 -3 2123 -12z
m207 -1117 c3 -5 6 -182 6 -393 l1 -383 -411 -3 -411 -2 0 395 0 395 404 0
c241 0 407 -4 411 -9z"/>
<path d="M1046 3203 c-11 -11 -6 -23 9 -23 8 0 15 4 15 9 0 13 -16 22 -24 14z"/>
<path d="M923 3183 c-10 -29 -26 -33 -41 -12 -17 25 -73 25 -95 1 -22 -25 -21
-75 1 -95 27 -25 78 -22 96 5 9 12 16 30 16 40 0 10 5 18 10 18 6 0 10 -18 10
-40 0 -22 5 -40 10 -40 6 0 10 18 10 40 0 33 3 40 20 40 17 0 20 -7 20 -40 0
-29 4 -40 15 -40 11 0 15 11 15 39 0 22 5 42 13 44 9 4 8 8 -3 17 -11 9 -12
13 -2 17 17 7 15 23 -3 23 -8 0 -20 -9 -27 -20 -7 -11 -22 -20 -33 -20 -19 1
-19 1 -2 14 23 17 22 26 -3 26 -11 0 -24 -8 -27 -17z m-65 -25 c30 -30 2 -86
-38 -73 -15 5 -20 15 -20 40 0 41 32 59 58 33z"/>
<path d="M2580 3130 c0 -56 3 -70 15 -70 12 0 15 14 15 70 0 56 -3 70 -15 70
-12 0 -15 -14 -15 -70z"/>
<path d="M2630 3130 c0 -56 3 -70 15 -70 12 0 15 14 15 70 0 56 -3 70 -15 70
-12 0 -15 -14 -15 -70z"/>
<path d="M460 3125 c0 -37 4 -65 10 -65 6 0 10 21 11 48 l0 47 18 -45 c10 -25
24 -45 31 -45 7 0 21 20 31 45 l18 45 0 -47 c1 -27 6 -48 11 -48 6 0 10 29 10
66 0 55 -3 65 -16 62 -9 -2 -24 -23 -34 -48 l-18 -45 -16 39 c-9 21 -16 42
-16 47 0 5 -9 9 -20 9 -18 0 -20 -7 -20 -65z"/>
<path d="M1330 3181 c0 -6 11 -11 25 -11 30 0 33 -20 5 -27 -11 -3 -20 -9 -20
-14 0 -5 9 -9 20 -9 14 0 20 -7 20 -21 0 -18 -5 -21 -30 -17 -19 3 -29 1 -27
-6 2 -6 19 -11 37 -11 37 0 57 22 45 51 -4 11 -8 30 -9 44 -1 21 -7 26 -33 28
-19 2 -33 -1 -33 -7z"/>
<path d="M1446 3174 c-19 -18 -21 -85 -4 -102 21 -21 57 -14 70 13 14 31 -3
55 -39 55 -22 0 -24 2 -13 15 7 8 21 15 31 15 11 0 19 5 19 10 0 16 -47 12
-64 -6z m44 -74 c0 -21 -24 -28 -35 -10 -8 14 3 30 21 30 8 0 14 -9 14 -20z"/>
<path d="M1540 3156 c0 -28 4 -35 23 -38 32 -4 28 -32 -5 -36 -16 -2 -28 -8
-28 -13 0 -11 50 -12 68 0 8 5 12 21 10 37 -2 21 -9 30 -25 32 -32 5 -30 32 2
32 14 0 25 5 25 10 0 6 -16 10 -35 10 -33 0 -35 -2 -35 -34z"/>
<path d="M1700 3170 c-25 -25 -26 -72 -2 -93 23 -21 82 -23 82 -3 0 9 -7 12
-20 9 -26 -7 -50 13 -50 42 0 29 24 49 50 42 13 -3 20 0 20 9 0 21 -57 17 -80
-6z"/>
<path d="M2082 3173 c-5 -10 -7 -38 -3 -63 5 -37 10 -46 29 -48 12 -2 22 1 22
7 0 6 -4 11 -10 11 -15 0 -12 57 3 64 10 5 10 7 0 12 -7 3 -13 12 -13 20 0 20
-17 18 -28 -3z"/>
<path d="M2295 3178 c30 -99 39 -118 50 -118 8 0 20 21 27 48 l14 47 12 -47
c17 -66 37 -63 58 10 9 31 18 60 21 65 2 4 -3 7 -11 7 -10 0 -20 -17 -28 -47
l-12 -48 -14 48 c-7 26 -19 47 -26 47 -7 0 -19 -21 -27 -47 l-13 -48 -14 48
c-8 27 -19 47 -27 47 -8 0 -13 -6 -10 -12z"/>
<path d="M2782 3173 c-5 -10 -7 -38 -3 -63 5 -37 10 -46 29 -48 12 -2 22 1 22
7 0 6 -4 11 -10 11 -15 0 -12 57 3 64 10 5 10 7 0 12 -7 3 -13 12 -13 20 0 20
-17 18 -28 -3z"/>
<path d="M620 3151 c0 -6 7 -29 17 -52 15 -40 15 -43 -2 -55 -21 -16 -14 -30
10 -20 15 5 44 61 60 115 11 38 -17 20 -30 -19 l-11 -33 -10 33 c-9 31 -34 54
-34 31z"/>
<path d="M1040 3110 c0 -38 4 -50 15 -50 11 0 15 12 15 50 0 38 -4 50 -15 50
-11 0 -15 -12 -15 -50z"/>
<path d="M1095 3136 c-16 -23 -11 -54 9 -68 18 -13 56 -9 56 5 0 8 -10 13 -22
13 -18 -1 -23 5 -23 24 0 18 6 26 23 28 30 5 28 22 -3 22 -15 0 -31 -9 -40
-24z"/>
<path d="M1178 3135 c-17 -38 3 -75 42 -75 19 0 30 5 30 14 0 9 -8 12 -25 8
-15 -2 -25 0 -25 7 0 6 14 11 30 11 22 0 30 5 30 18 0 45 -63 59 -82 17z m57
-5 c3 -5 -3 -10 -14 -10 -12 0 -21 5 -21 10 0 6 6 10 14 10 8 0 18 -4 21 -10z"/>
<path d="M1800 3110 c0 -37 4 -50 14 -50 10 0 16 13 18 37 4 53 31 56 46 5 16
-51 15 -62 -3 -62 -8 0 -15 -4 -15 -10 0 -5 9 -10 20 -10 20 0 50 53 66 116
10 39 -13 28 -27 -13 l-13 -38 -9 38 c-9 36 -10 37 -53 37 l-44 0 0 -50z"/>
<path d="M1970 3088 c0 -39 4 -68 10 -68 6 0 10 11 10 24 0 19 4 23 20 19 28
-7 50 14 50 47 0 35 -17 49 -58 48 l-32 -1 0 -69z m63 40 c6 -21 -4 -48 -19
-48 -18 0 -28 24 -20 45 7 18 33 20 39 3z"/>
<path d="M2151 3146 c-16 -19 -10 -66 10 -79 44 -28 95 25 69 72 -13 25 -61
29 -79 7z m57 -34 c2 -13 -3 -25 -13 -28 -23 -9 -38 10 -30 36 9 27 39 22 43
-8z"/>
<path d="M2490 3147 c0 -10 7 -13 19 -10 10 3 21 0 25 -5 3 -5 -8 -12 -25 -16
-25 -5 -30 -10 -27 -28 2 -19 10 -24 41 -26 l38 -3 -3 48 c-3 46 -4 48 -35 51
-24 2 -33 -1 -33 -11z m45 -57 c-3 -5 -10 -10 -16 -10 -5 0 -9 5 -9 10 0 6 7
10 16 10 8 0 12 -4 9 -10z"/>
<path d="M2685 3137 c-12 -19 -13 -30 -5 -51 8 -23 15 -27 42 -24 17 2 33 8
35 14 2 7 -5 10 -20 7 -14 -3 -28 0 -31 6 -5 7 4 11 24 11 28 0 31 3 28 28 -4
38 -50 44 -73 9z m55 -7 c0 -5 -9 -10 -21 -10 -11 0 -17 5 -14 10 3 6 13 10
21 10 8 0 14 -4 14 -10z"/>
<path d="M4271 2089 c-55 -73 -99 -135 -96 -137 2 -2 46 21 97 52 52 31 100
56 106 56 7 0 56 -25 108 -56 53 -31 97 -54 99 -52 5 5 -192 262 -204 266 -5
2 -55 -57 -110 -129z"/>
<path d="M4263 1962 l-102 -67 102 -183 c56 -100 104 -182 107 -182 7 0 205
350 205 362 0 6 -202 139 -208 137 -1 0 -48 -31 -104 -67z"/>
</g>
</svg>
